<?xml version="1.0" encoding="utf-8"?>
<!-- Generator: Adobe Illustrator 21.1.0, SVG Export Plug-In . SVG Version: 6.00 Build 0)  -->
<svg version="1.1" id="Ebene_1" xmlns="http://www.w3.org/2000/svg" xmlns:xlink="http://www.w3.org/1999/xlink" x="0px" y="0px"
	 viewBox="0 0 24 24" style="enable-background:new 0 0 24 24;" xml:space="preserve">
<style type="text/css">
	.st0{fill:#3FAD54;}
</style>
<g>
	<path class="st0" d="M22.4,7.9C22.4,7.8,22.4,7.8,22.4,7.9c0-0.1,0-0.1,0-0.2c0,0,0,0,0-0.1c0,0,0-0.1,0-0.1c0,0,0,0,0-0.1
		c0,0,0-0.1-0.1-0.1c0,0,0,0-0.1,0c0,0-0.1,0-0.1-0.1c0,0,0,0,0,0c0,0,0,0,0,0l-9.7-5.3c-0.2-0.1-0.5-0.1-0.7,0L2,7.2c0,0,0,0,0,0
		c0,0,0,0,0,0c0,0-0.1,0-0.1,0.1c0,0,0,0-0.1,0c0,0,0,0.1-0.1,0.1c0,0,0,0,0,0.1c0,0,0,0.1,0,0.1c0,0,0,0,0,0.1c0,0,0,0.1,0,0.1
		c0,0,0,0.1,0,0.1c0,0,0,0,0,0c0,0,0,0,0,0v9.7c0,0.3,0.1,0.5,0.4,0.6l9.7,5.6c0.1,0.1,0.2,0.1,0.4,0.1c0.1,0,0.2,0,0.4-0.1l9.7-5.6
		c0.2-0.1,0.4-0.4,0.4-0.6L22.4,7.9C22.4,7.9,22.4,7.9,22.4,7.9C22.4,7.9,22.4,7.9,22.4,7.9z M15.8,10.4l-3.1-1.7v-5l7.5,4.1
		L15.8,10.4z M11.3,3.8v5l-3.1,1.7L3.8,7.9L11.3,3.8z M3,9.1l8.2,4.8v8L3,17.1V9.1z M12.7,21.9v-8L21,9.1v8L12.7,21.9z"/>
</g>
</svg>
