<?xml version="1.0" encoding="utf-8"?>
<!-- Generator: Adobe Illustrator 21.1.0, SVG Export Plug-In . SVG Version: 6.00 Build 0)  -->
<svg version="1.1" id="Ebene_1" xmlns="http://www.w3.org/2000/svg" xmlns:xlink="http://www.w3.org/1999/xlink" x="0px" y="0px"
	 viewBox="0 0 140 140" style="enable-background:new 0 0 140 140;" xml:space="preserve">
<style type="text/css">
	.st0{fill:#F4F3F4;}
</style>
<path class="st0" d="M70,136.8c-0.1,0-0.2,0-0.3-0.1L7.4,100.8c-0.2-0.1-0.3-0.3-0.3-0.5l0-62c0-0.1,0-0.2,0-0.4c0,0,0-0.1,0-0.1
	c0,0,0.1-0.1,0.1-0.1c0,0,0.2-0.1,0.2-0.2l0.1-0.1L69.7,3.3c0.1,0,0.2-0.1,0.3-0.1c0.1,0,0.2,0,0.3,0.1l61.9,34l0.4,0.4l0.1,0
	c0,0,0,0,0,0l0,0.1l0-0.1c0,0,0,0.1,0,0.1c0,0.1,0,0.2,0,0.2v62.2c0,0.2-0.1,0.4-0.3,0.5l-62.3,35.9C70.2,136.8,70.1,136.8,70,136.8
	z M8.4,99.9l61.1,35.3V74.3L8.4,39V99.9z M70.6,74.3v60.9l61.1-35.3V39.1L70.6,74.3z M9,38l36.6,21.1L69.4,46V4.8L9,38z M70.6,46
	l23.9,13.1L131.1,38L70.6,4.8V46z"/>
</svg>
