<?xml version="1.0" encoding="utf-8"?>
<!-- Generator: Adobe Illustrator 21.1.0, SVG Export Plug-In . SVG Version: 6.00 Build 0)  -->
<svg version="1.1" id="Ebene_1" xmlns="http://www.w3.org/2000/svg" xmlns:xlink="http://www.w3.org/1999/xlink" x="0px" y="0px"
	 viewBox="0 0 123.9 39.1" style="enable-background:new 0 0 123.9 39.1;" xml:space="preserve">
<style type="text/css">
	.st0{fill:#3FAD54;}
	.st1{fill:#FFFFFF;}
</style>
<g id="XMLID_395_">
	<path id="XMLID_406_" class="st0" d="M32.2,25.1h6v5.3h-18L42.6,8c0.7-0.7,1-1.8,0.6-2.8c-0.4-1-1.3-1.6-2.4-1.6H14
		c-1.4,0-2.6,1.1-2.6,2.6V14h0v11.1L22.6,14h-6V8.7h18L12.2,31.1c-0.7,0.7-1,1.8-0.6,2.8c0.4,1,1.3,1.6,2.4,1.6h26.7
		c1.4,0,2.6-1.1,2.6-2.6v-7.8h0V14L32.2,25.1z"/>
	<g id="XMLID_396_">
		<path id="XMLID_404_" class="st1" d="M59,10.2c3.1,0,5.1,1.2,6.1,2c0.6,0.4,0.7,1,0.2,1.6L65,14.4c-0.4,0.7-1,0.7-1.6,0.3
			c-0.8-0.5-2.2-1.4-4.1-1.4c-3.7,0-6.5,2.8-6.5,6.6c0,3.8,2.7,6.7,6.5,6.7c2.2,0,3.8-1,4.7-1.7c0.7-0.4,1.2-0.4,1.6,0.3l0.3,0.5
			c0.4,0.6,0.3,1.2-0.3,1.6c-1,0.8-3.3,2.3-6.6,2.3c-5.8,0-9.9-4.1-9.9-9.7C49.1,14.4,53.2,10.2,59,10.2z"/>
		<path id="XMLID_401_" class="st1" d="M76.3,10.2c5.5,0,10,4.1,10,9.7c0,5.6-4.5,9.7-10,9.7c-5.5,0-10-4.1-10-9.7
			C66.3,14.3,70.7,10.2,76.3,10.2z M76.3,26.5c3.5,0,6.4-2.8,6.4-6.7c0-3.8-2.9-6.6-6.4-6.6c-3.5,0-6.4,2.7-6.4,6.6
			C69.9,23.8,72.8,26.5,76.3,26.5z"/>
		<path id="XMLID_399_" class="st1" d="M88.6,11.8c0-0.8,0.4-1.2,1.2-1.2H91c0.8,0,1.2,0.4,1.2,1.2V28c0,0.8-0.4,1.2-1.2,1.2h-1.1
			c-0.8,0-1.2-0.4-1.2-1.2V11.8z"/>
		<path id="XMLID_397_" class="st1" d="M95.6,11.8c0-0.8,0.4-1.2,1.2-1.2h1c0.8,0,1.2,0.4,1.2,1.2v1.6c0,0.5-0.1,1.1-0.1,1.1H99
			c0.7-1.6,3-4.4,7-4.4c4.4,0,6.3,2.4,6.3,7.1V28c0,0.8-0.4,1.2-1.2,1.2h-1.1c-0.8,0-1.2-0.4-1.2-1.2v-9.9c0-2.6-0.5-4.7-3.5-4.7
			c-3.6,0-6.2,3-6.2,6.9V28c0,0.8-0.4,1.2-1.2,1.2h-1.1c-0.8,0-1.2-0.4-1.2-1.2V11.8z"/>
	</g>
</g>
</svg>
