<?xml version="1.0" encoding="utf-8"?>
<!-- Generator: Adobe Illustrator 21.1.0, SVG Export Plug-In . SVG Version: 6.00 Build 0)  -->
<svg version="1.1" id="Ebene_1" xmlns="http://www.w3.org/2000/svg" xmlns:xlink="http://www.w3.org/1999/xlink" x="0px" y="0px"
	 viewBox="0 0 24 24" style="enable-background:new 0 0 24 24;" xml:space="preserve">
<style type="text/css">
	.st0{fill:#3FAD54;}
</style>
<g>
	<path class="st0" d="M11.9,3.3c-5,0-9,4-9,9s4,9,9,9s9-4,9-9S16.9,3.3,11.9,3.3z M13.8,17.2c-0.5,0.2-0.8,0.3-1.1,0.4
		c-0.3,0.1-0.6,0.1-1,0.1c-0.6,0-1-0.1-1.3-0.4c-0.3-0.3-0.5-0.6-0.5-1c0-0.2,0-0.3,0-0.5c0-0.2,0.1-0.4,0.1-0.6l0.6-2
		c0.1-0.2,0.1-0.4,0.1-0.6c0-0.2,0.1-0.3,0.1-0.5c0-0.3-0.1-0.4-0.2-0.5c-0.1-0.1-0.3-0.2-0.6-0.2c-0.1,0-0.3,0-0.5,0.1
		c-0.2,0-0.3,0.1-0.4,0.1L9.4,11c0.4-0.2,0.7-0.3,1.1-0.4c0.3-0.1,0.7-0.2,1-0.2c0.6,0,1,0.1,1.3,0.4c0.3,0.3,0.5,0.6,0.5,1
		c0,0.1,0,0.2,0,0.5c0,0.2-0.1,0.4-0.1,0.6l-0.6,2c0,0.2-0.1,0.4-0.1,0.6c0,0.2-0.1,0.4-0.1,0.5c0,0.3,0.1,0.5,0.2,0.6
		c0.1,0.1,0.3,0.1,0.6,0.1c0.1,0,0.3,0,0.5-0.1c0.2,0,0.3-0.1,0.4-0.1L13.8,17.2z M13.7,8.9c-0.3,0.2-0.6,0.4-1,0.4
		c-0.4,0-0.7-0.1-1-0.4c-0.3-0.2-0.4-0.6-0.4-0.9c0-0.4,0.1-0.7,0.4-0.9c0.3-0.3,0.6-0.4,1-0.4c0.4,0,0.7,0.1,1,0.4
		C14,7.4,14.1,7.7,14.1,8C14.1,8.4,14,8.7,13.7,8.9z"/>
</g>
</svg>
