<?xml version="1.0" encoding="UTF-8" standalone="no"?>
<!-- Generator: Adobe Illustrator 21.1.0, SVG Export Plug-In . SVG Version: 6.00 Build 0)  -->

<svg
   xmlns:dc="http://purl.org/dc/elements/1.1/"
   xmlns:cc="http://creativecommons.org/ns#"
   xmlns:rdf="http://www.w3.org/1999/02/22-rdf-syntax-ns#"
   xmlns:svg="http://www.w3.org/2000/svg"
   xmlns="http://www.w3.org/2000/svg"
   xmlns:sodipodi="http://sodipodi.sourceforge.net/DTD/sodipodi-0.dtd"
   xmlns:inkscape="http://www.inkscape.org/namespaces/inkscape"
   version="1.1"
   id="Ebene_1"
   x="0px"
   y="0px"
   viewBox="0 0 64 64"
   style="enable-background:new 0 0 64 64;"
   xml:space="preserve"
   inkscape:version="0.91 r13725"
   sodipodi:docname="ic_nav_zerocoin_outline.svg"><metadata
     id="metadata15"><rdf:RDF><cc:Work
         rdf:about=""><dc:format>image/svg+xml</dc:format><dc:type
           rdf:resource="http://purl.org/dc/dcmitype/StillImage" /></cc:Work></rdf:RDF></metadata><defs
     id="defs13" /><sodipodi:namedview
     pagecolor="#ffffff"
     bordercolor="#666666"
     borderopacity="1"
     objecttolerance="10"
     gridtolerance="10"
     guidetolerance="10"
     inkscape:pageopacity="0"
     inkscape:pageshadow="2"
     inkscape:window-width="2134"
     inkscape:window-height="1299"
     id="namedview11"
     showgrid="false"
     inkscape:zoom="10.429825"
     inkscape:cx="-7.5506005"
     inkscape:cy="12.788583"
     inkscape:window-x="635"
     inkscape:window-y="990"
     inkscape:window-maximized="0"
     inkscape:current-layer="Ebene_1" /><style
     type="text/css"
     id="style3">
	.st0{fill:none;stroke:#FFFFFF;stroke-width:2;stroke-miterlimit:10;}
	.st1{fill:#40AD55;}
</style><g
     id="g5"
     transform="matrix(1.9063792,0,0,1.8323891,-28.580541,-24.81845)"><g
       id="g7"><path
         class="st1"
         d="m 47.4,37.8 0,0 0,7.6 c 0,1.4 -1.1,2.5 -2.5,2.5 l -26,0 c -1,0 -1.9,-0.6 -2.3,-1.5 -0.4,-0.9 -0.2,-2 0.5,-2.7 l 21.8,-21.8 -17.6,0 0,5.1 5.8,0 -10.8,10.8 0,-10.9 0,0 0,-7.6 c 0,-1.4 1.1,-2.5 2.5,-2.5 l 26,0 c 1,0 1.9,0.6 2.3,1.5 0.4,0.9 0.2,2 -0.5,2.7 l -21.7,21.9 17.5,0 0,-5.1 -5.8,0 10.8,-10.8 0,10.8 z"
         id="path9"
         inkscape:connector-curvature="0"
         style="fill:#40ad55" /></g></g></svg>